<?xml version="1.0" encoding="UTF-8"?>
<svg id="Layer_1" data-name="Layer 1" xmlns="http://www.w3.org/2000/svg" viewBox="0 0 832.53 551.58">
  <path d="m138.31,374.24h9.42v-172.2h-7.53l-58.2,128.22L23.8,202.04h-11.3l7.72,16.69v155.51h9.42c-3.39-21.99-7.53-44.77-7.53-131.67v-19.6l51.6,113.39h7.72l56.88-125.31v163.19Z"/>
  <path d="m297.83,374.24l-54.62-172.2h-10.36l5.08,16.43-49.34,155.77h10.36c.94-9.27,3.01-21.72,6.78-37.88h69.69l12.05,37.88h10.36Zm-91.53-40.53c5.08-21.46,12.81-49.01,23.92-84.25l8.85-27.82,35.41,112.06h-68.18Z"/>
  <rect x="339.07" y="202.04" width="9.42" height="172.2"/>
  <path d="m405.93,230.65c0-14.84,12.62-27.82,35.6-27.82,20.34,0,35.22,20.93,41.25,33.65l-.19-17.75c-8.48-10.33-22.22-18.54-41.06-18.54-27.12,0-42,17.49-42,36.56,0,51.66,82.68,46.63,82.68,100.41,0,18.81-12.62,36.03-40.49,36.03-20.34,0-35.22-20.93-41.25-33.38v17.49c8.66,10.33,22.41,18.54,41.25,18.54,31.64,0,47.65-22.52,47.65-45.83,0-57.49-83.43-54.31-83.43-99.35Z"/>
  <path d="m597.66,200.18c-88.71,0-88.71,175.64,0,175.64s88.71-175.64,0-175.64Zm0,173c-74.77,0-74.77-170.35,0-170.35s74.77,170.35,0,170.35Z"/>
  <path d="m800.12,202.04c3.39,21.99,7.53,44.77,7.53,131.67v31l-89.84-162.66h-12.05l9.42,16.96v155.25h9.42c-3.39-21.99-7.53-44.77-7.53-131.67v-20.13l84,151.8h8.48v-172.2h-9.42Z"/>
  <polygon points="123.98 100.62 417.3 19.68 710.62 100.62 710.62 165.48 712.24 165.48 712.24 99.38 417.51 18.06 417.3 18 122.95 99.22 122.36 99.38 122.36 165.48 123.98 165.48 123.98 100.62"/>
  <polygon points="710.62 523.75 613.32 523.75 613.32 523.75 123.98 523.75 123.98 456.96 122.36 456.96 122.36 525.37 613.32 525.37 613.32 525.37 712.24 525.37 712.24 456.96 710.62 456.96 710.62 523.75"/>
  <path d="m101.02,403.06h-12.88c-.29,0-.39.6.39.83l1.03.28c1.32.37,1.67.83,1.67,1.56v24.98c0,.74-.34,1.2-1.67,1.56l-1.03.28c-.78.23-.69.83-.39.83h14.25c8.91,0,16.11-6.85,16.11-15.18s-7.84-15.14-17.49-15.14Zm1.57,28.8h-1.47c-1.91,0-5.98-.37-5.98-3.04v-23.92c1.42-.23,2.89-.37,4.26-.37,8.87,0,14.89,6.67,14.89,14.86,0,6.16-4.65,12.47-11.71,12.47Z"/>
  <path d="m134.82,432.28l-1.03.28c-.78.23-.69.83-.39.83h18.32c1.13,0,1.47-.51,1.62-1.75l.54-4.09c.05-.41-.64-.74-.83-.09-1.47,4.23-3.18,4.55-8.03,4.55h-1.32c-2.6,0-3.28-1.33-3.28-3.31v-10.35h4.51c3.13,0,4.31.6,4.36,1.98,0,.28.1.37.29.37s.54-.28.64-.78l.25-1.2c.34-1.75.49-2.39.15-2.58-.54-.28-.25.69-3.13.69h-7.05v-9.06c0-1.98.69-3.31,3.28-3.31h1.32c4.16,0,5.98.18,6.02,3.96,0,.64.78.32.88-.09l.69-3.5c.25-1.29.25-1.75-.88-1.75h-18.32c-.29,0-.39.6.39.83l1.03.28c1.32.37,1.67.83,1.67,1.56v24.98c0,.74-.34,1.2-1.67,1.56Z"/>
  <path d="m172.88,410.06l21.06,23.14c.29.32.73.51,1.13.51.44,0,.78-.23.78-.64v-27.33c0-.74.34-1.2,1.67-1.56l1.03-.28c.83-.23.69-.83.39-.83h-9.65c-.44,0-.59.6.54.83l1.42.28c1.91.37,2.35,1.33,2.35,2.48v19.64c0,.28-.15.32-.29.14l-21.01-23.09c-.29-.32-.73-.51-1.18-.51s-.78.23-.78.64v27.24c0,.74-.34,1.2-1.67,1.56l-1.03.28c-.78.23-.69.83-.39.83h9.45c.39,0,.59-.6-.49-.83l-1.37-.28c-1.86-.37-2.25-1.33-2.25-2.48v-19.6c0-.28.15-.32.29-.14Z"/>
  <path d="m228.18,404.44h3.67c4.16,0,5.98.18,6.02,4.05,0,.64.78.32.88-.09l.69-3.59c.25-1.29.25-1.75-.88-1.75h-24.49c-1.13,0-1.42.51-1.62,1.75l-.54,3.82c-.05.41.64.74.83.09,1.47-4,4.6-4.28,6.81-4.28h4.02c.29,0,.34.14.34.32v25.49c0,.92-.44,1.84-2.06,2.12l-1.13.18c-1.03.18-.88.83-.49.83h11.27c.39,0,.54-.64-.49-.83l-1.13-.18c-1.62-.28-2.06-1.2-2.06-2.12v-25.49c0-.18.05-.32.34-.32Z"/>
  <path d="m270.85,432.28l-.93.28c-.88.23-.73.83-.39.83h10.63c.29,0,.39-.6-.44-.83l-.49-.14c-2.06-.6-2.94-1.61-3.62-3.27l-9.35-23.46c-.88-2.16-1.13-2.67-1.67-2.67s-.73.6-1.62,2.76l-9.4,23.37c-.69,1.66-1.57,2.67-3.62,3.27l-.49.14c-.83.23-.73.83-.44.83h8.82c.29,0,.49-.6-.39-.83l-.98-.28c-1.22-.37-1.42-.92-1.08-1.75l3.33-8.6h9.89l3.33,8.6c.34.83.15,1.38-1.08,1.75Zm-11.46-12.05l3.97-10.26c.15-.41.39-.46.59,0l3.97,10.26h-8.52Z"/>
  <path d="m295.54,432.28l-1.03.28c-.78.23-.69.83-.39.83h18.32c1.13,0,1.47-.51,1.62-1.75l.54-4.09c.05-.41-.64-.74-.83-.09-1.47,4.23-3.18,4.55-8.03,4.55h-1.32c-2.6,0-3.28-1.33-3.28-3.31v-22.96c0-.74.44-1.2,2.06-1.56l1.27-.28c1.03-.23.88-.83.49-.83h-10.82c-.29,0-.39.6.39.83l1.03.28c1.32.37,1.67.83,1.67,1.56v24.98c0,.74-.34,1.2-1.67,1.56Z"/>
  <path d="m349.08,424.87c0,5.61,5.29,8.74,11.27,8.74,3.72,0,6.96-1.2,9.5-3.73,2.3,2.62,4.95,3.68,7.44,3.68s4.65-1.1,5.73-2.44c.34-.41.2-1.01-.34-.6-1.13.83-2.4,1.24-3.53,1.24-2.74,0-5.09-2.58-6.42-4.42-.15-.23-.34-.46-.49-.64.93-1.66,1.71-3.59,2.25-5.84.39-1.56.69-3.08,3.13-3.59l.69-.14c.88-.18.69-.83.15-.83h-9.06c-.59,0-.69.64.1.78l1.08.18c2.69.46,2.64,1.89,2.3,3.45-.39,1.7-.98,3.27-1.71,4.55-3.62-4.51-7.45-7.59-10.24-10.17,3.33-1.56,5.88-4.14,5.88-7.13s-2.84-5.2-6.47-5.2c-3.97,0-7.05,2.53-6.91,6.67.1,2.35,1.18,4.23,2.89,6.07-4.21,2.16-7.25,5.06-7.25,9.34Zm11.12-20.52c2.06,0,3.87,1.38,3.87,4s-1.81,4.46-4.26,5.66c-1.96-1.98-3.23-3.73-3.23-5.84s1.42-3.82,3.62-3.82Zm-2.74,12.33c2.99,2.94,7.25,6.17,11.17,11.69-1.96,1.66-4.46,2.53-7.35,2.53-4.65,0-8.33-2.3-8.33-7.27,0-2.71,1.13-4.97,4.51-6.95Z"/>
  <path d="m438.08,432.28l-.93.28c-.88.23-.73.83-.39.83h10.63c.29,0,.39-.6-.44-.83l-.49-.14c-2.06-.6-2.94-1.61-3.62-3.27l-9.35-23.46c-.88-2.16-1.13-2.67-1.67-2.67s-.73.6-1.62,2.76l-9.4,23.37c-.69,1.66-1.57,2.67-3.62,3.27l-.49.14c-.83.23-.73.83-.44.83h8.82c.29,0,.49-.6-.39-.83l-.98-.28c-1.22-.37-1.42-.92-1.08-1.75l3.33-8.6h9.89l3.33,8.6c.34.83.15,1.38-1.08,1.75Zm-11.46-12.05l3.97-10.26c.15-.41.39-.46.59,0l3.97,10.26h-8.52Z"/>
  <path d="m462.77,432.28l-1.03.28c-.78.23-.69.83-.39.83h18.32c1.13,0,1.47-.51,1.62-1.75l.54-4.09c.05-.41-.64-.74-.83-.09-1.47,4.23-3.18,4.55-8.03,4.55h-1.32c-2.6,0-3.28-1.33-3.28-3.31v-10.35h4.51c3.13,0,4.31.6,4.36,1.98,0,.28.1.37.29.37s.54-.28.64-.78l.24-1.2c.34-1.75.49-2.39.15-2.58-.54-.28-.24.69-3.13.69h-7.05v-9.06c0-1.98.69-3.31,3.28-3.31h1.32c4.16,0,5.98.18,6.02,3.96,0,.64.78.32.88-.09l.69-3.5c.25-1.29.25-1.75-.88-1.75h-18.32c-.29,0-.39.6.39.83l1.03.28c1.32.37,1.67.83,1.67,1.56v24.98c0,.74-.34,1.2-1.67,1.56Z"/>
  <path d="m497.55,424.92c-.2,0-.44.09-.49.32l-1.47,5.43c-.1.18-.05.46.2.6,2.79,1.56,6.12,2.44,9.21,2.44,6.56,0,10.24-3.86,10.24-8.37,0-9.06-14.84-9.29-14.84-16.65,0-2.62,1.86-4.37,4.75-4.37,2.5,0,5.83,1.29,7,6.07.1.46.69.18.73-.14l.49-5.93c.05-.18-.05-.28-.34-.28s-.78.09-1.57.09c-.69,0-2.6-1.33-5.93-1.33-5.34,0-8.72,3.5-8.72,7.41,0,8.19,14.84,9.2,14.84,16.84,0,3.08-2.4,5.15-6.32,5.15-3.33,0-7.69-1.52-7.2-6.81.05-.28-.29-.46-.59-.46Z"/>
  <path d="m545.01,404.44h3.67c4.16,0,5.98.18,6.02,4.05,0,.64.78.32.88-.09l.69-3.59c.25-1.29.25-1.75-.88-1.75h-24.49c-1.13,0-1.42.51-1.62,1.75l-.54,3.82c-.05.41.64.74.83.09,1.47-4,4.6-4.28,6.81-4.28h4.02c.29,0,.34.14.34.32v25.49c0,.92-.44,1.84-2.06,2.12l-1.13.18c-1.03.18-.88.83-.49.83h11.27c.39,0,.54-.64-.49-.83l-1.13-.18c-1.62-.28-2.06-1.2-2.06-2.12v-25.49c0-.18.05-.32.34-.32Z"/>
  <path d="m601.34,404.17l1.03-.28c.83-.23.69-.83.39-.83h-10.09c-.29,0-.39.6.39.83l1.03.28c1.32.37,1.67.83,1.67,1.56v10.58h-18.17v-10.58c0-.74.34-1.2,1.67-1.56l1.03-.28c.83-.23.69-.83.39-.83h-10.09c-.29,0-.39.6.39.83l1.03.28c1.32.37,1.67.83,1.67,1.56v24.98c0,.74-.34,1.2-1.67,1.56l-1.03.28c-.78.23-.69.83-.39.83h10.09c.29,0,.44-.6-.39-.83l-1.03-.28c-1.32-.37-1.67-.83-1.67-1.56v-12.61h18.17v12.61c0,.74-.34,1.2-1.67,1.56l-1.03.28c-.78.23-.69.83-.39.83h10.09c.29,0,.44-.6-.39-.83l-1.03-.28c-1.32-.37-1.67-.83-1.67-1.56v-24.98c0-.74.34-1.2,1.67-1.56Z"/>
  <path d="m619.86,432.28l-1.03.28c-.78.23-.69.83-.39.83h18.32c1.13,0,1.47-.51,1.62-1.75l.54-4.09c.05-.41-.64-.74-.83-.09-1.47,4.23-3.18,4.55-8.03,4.55h-1.32c-2.6,0-3.28-1.33-3.28-3.31v-10.35h4.51c3.13,0,4.31.6,4.36,1.98,0,.28.1.37.29.37s.54-.28.64-.78l.24-1.2c.34-1.75.49-2.39.15-2.58-.54-.28-.24.69-3.13.69h-7.05v-9.06c0-1.98.69-3.31,3.28-3.31h1.32c4.16,0,5.98.18,6.02,3.96,0,.64.78.32.88-.09l.69-3.5c.25-1.29.25-1.75-.88-1.75h-18.32c-.29,0-.39.6.39.83l1.03.28c1.32.37,1.67.83,1.67,1.56v24.98c0,.74-.34,1.2-1.67,1.56Z"/>
  <path d="m668.36,404.44h3.67c4.16,0,5.98.18,6.02,4.05,0,.64.78.32.88-.09l.69-3.59c.24-1.29.24-1.75-.88-1.75h-24.49c-1.13,0-1.42.51-1.62,1.75l-.54,3.82c-.05.41.64.74.83.09,1.47-4,4.6-4.28,6.81-4.28h4.02c.29,0,.34.14.34.32v25.49c0,.92-.44,1.84-2.06,2.12l-1.13.18c-1.03.18-.88.83-.49.83h11.27c.39,0,.54-.64-.49-.83l-1.13-.18c-1.62-.28-2.06-1.2-2.06-2.12v-25.49c0-.18.05-.32.34-.32Z"/>
  <path d="m702.6,404.17l1.03-.28c.83-.23.69-.83.39-.83h-10.09c-.29,0-.39.6.39.83l1.03.28c1.32.37,1.67.83,1.67,1.56v24.98c0,.74-.34,1.2-1.67,1.56l-1.03.28c-.78.23-.69.83-.39.83h10.09c.29,0,.44-.6-.39-.83l-1.03-.28c-1.32-.37-1.67-.83-1.67-1.56v-24.98c0-.74.34-1.2,1.67-1.56Z"/>
  <path d="m746.19,404.03c-.29,0-.78.09-1.62.09-.93,0-3.43-1.33-8.42-1.33-10.24,0-17.24,6.9-17.24,15.37s7.05,15.41,16.7,15.41c4.11,0,7.45-1.47,8.47-1.47.69,0,1.03.09,1.27.09.29,0,.39-.18.44-.51l.73-6.03c.05-.32-.54-.6-.69-.14-1.76,4.69-5.14,6.53-9.06,6.53-8.72,0-13.71-6.49-13.71-14.22s5.73-13.53,13.27-13.53c3.92,0,8.03,1.52,8.96,6.07.1.46.69.18.73-.14l.49-5.93c.05-.18-.05-.28-.34-.28Z"/>
</svg>